<?xml version="1.0" encoding="UTF-8" standalone="no"?>
<svg width="30px" height="30px" viewBox="0 0 30 30" version="1.1" xmlns="http://www.w3.org/2000/svg" xmlns:xlink="http://www.w3.org/1999/xlink" xmlns:sketch="http://www.bohemiancoding.com/sketch/ns">
    <!-- Generator: Sketch 3.3.2 (12043) - http://www.bohemiancoding.com/sketch -->
    <title>Untitled 2</title>
    <desc>Created with Sketch.</desc>
    <defs></defs>
    <g id="Page-1" stroke="none" stroke-width="1" fill="none" fill-rule="evenodd" sketch:type="MSPage">
        <path d="M6.95764814,10.7052413 C7.18712676,10.1598394 6.93290747,9.52962108 6.38395156,9.30058092 L3.49252083,8.08452079 C2.94535772,7.854407 2.31500861,8.11028781 2.0844543,8.65640546 C1.90983541,9.07046713 2.01525215,9.53212621 2.31536717,9.83202568 C2.41038567,9.92686262 2.52584211,10.0059531 2.65779232,10.0610658 L5.54958161,11.2767681 C6.09674471,11.5068819 6.72709383,11.251359 6.95764814,10.7052413" id="Fill-6" fill="#14988D" sketch:type="MSShapeGroup"></path>
        <path d="M23.0844542,18.6561032 C22.9098355,19.0705228 23.0152521,19.5321819 23.3153668,19.8317235 C23.4103852,19.9265604 23.5262001,20.0060087 23.6577916,20.0607636 L26.5495777,21.2768237 C27.0967402,21.5069375 27.7270886,21.2510567 27.9576427,20.7049391 C28.187121,20.1595372 27.932902,19.528961 27.3843053,19.3002787 L24.4925192,18.0845764 C23.9453567,17.8544627 23.3150083,18.1099856 23.0844542,18.6561032" id="Fill-7" fill="#9E2350" sketch:type="MSShapeGroup"></path>
        <path d="M18.0845126,5.54938014 C17.909931,5.96463187 18.0151093,6.427218 18.3145453,6.72771969 C18.4093489,6.82274707 18.5241863,6.90163773 18.6561958,6.95721978 C19.2017633,7.18815425 19.8303286,6.93104243 20.0607191,6.38454533 L21.2767085,3.49248555 C21.505668,2.94598845 21.2552436,2.31558038 20.7046676,2.08464591 C20.1591001,1.85407003 19.5305348,2.11082326 19.3001443,2.65732036 L18.0845126,5.54938014" id="Fill-8" fill="#14988D" sketch:type="MSShapeGroup"></path>
        <path d="M11.276699,25.4924855 C11.5060276,24.9459884 11.2541597,24.3166562 10.7049876,24.0846459 C10.1593931,23.85407 9.53079664,24.1108233 9.30039476,24.6573204 L8.08434512,27.5493801 C7.91011264,27.9646319 8.01493834,28.427218 8.31474699,28.7277197 C8.40955522,28.8227471 8.52404062,28.9016377 8.6560566,28.9572198 C9.20200887,29.1881543 9.83060529,28.9310424 10.0606494,28.3845453 L11.276699,25.4924855" id="Fill-9" fill="#9E2350" sketch:type="MSShapeGroup"></path>
        <path d="M5.96246082,18.675353 C5.737195,18.1179396 5.11431713,17.8551383 4.56581273,18.0807064 L1.66739251,19.2743374 C1.11960325,19.4999055 0.856077993,20.1321468 1.07955599,20.6863068 C1.1353361,20.824395 1.21578818,20.9447703 1.31340337,21.0434563 C1.60946701,21.3427678 2.06428943,21.450491 2.47656164,21.2809534 L5.3746243,20.0876839 C5.92241356,19.8617543 6.18593881,19.229513 5.96246082,18.675353" id="Fill-10" fill="#9E2350" sketch:type="MSShapeGroup"></path>
        <path d="M23.0796723,10.687301 C23.1358179,10.8253155 23.2162813,10.9452654 23.3139102,11.0438988 C23.6100154,11.3430508 24.0652593,11.4503553 24.4772319,11.2809081 L27.375344,10.0861067 C27.9228526,9.86029752 28.1860572,9.22803187 27.9621902,8.67452847 C27.7365352,8.11741212 27.1132122,7.8551122 26.5649883,8.08092136 L23.6668762,9.27536147 C23.11901,9.50153193 22.856163,10.1334363 23.0796723,10.687301" id="Fill-11" fill="#14988D" sketch:type="MSShapeGroup"></path>
        <path d="M8.08029476,3.47636184 L9.27388856,6.37430274 C9.32993431,6.5105124 9.41165264,6.62991929 9.51036549,6.72751833 C9.8097583,7.02353302 10.2696951,7.13006971 10.6862416,6.96275706 C11.2405522,6.73931602 11.5066791,6.11403862 11.2810498,5.56598244 L10.087456,2.66804154 C9.86327296,2.11927035 9.22869037,1.85650369 8.67510294,2.07922971 C8.12079234,2.30302826 7.85466539,2.92794816 8.08029476,3.47636184" id="Fill-12" fill="#14988D" sketch:type="MSShapeGroup"></path>
        <path d="M21.2810363,27.5657843 L20.0873177,24.667674 C19.8627496,24.1185131 19.2291855,23.8568037 18.674817,24.0791852 C18.1208101,24.3026393 17.8546553,24.9279533 18.0803082,25.4760415 L19.2740268,28.3745094 C19.3297168,28.5103695 19.4114437,28.6297834 19.5105285,28.7273881 C19.809591,29.0234201 20.2699375,29.129963 20.6865275,28.9629981 C21.2405345,28.739544 21.5066892,28.1142301 21.2810363,27.5657843" id="Fill-13" fill="#9E2350" sketch:type="MSShapeGroup"></path>
        <path d="M21.0000002,14.2605042 C21.0000002,14.6087516 21.1249503,14.9237725 21.3274814,15.1517316 C21.5296395,15.3796906 21.8090055,15.5210084 22.1178374,15.5210084 L28.2855239,15.5210084 C28.9028147,15.5210084 29.4037341,14.9565784 29.4033611,14.2605042 C29.4033611,13.5640094 28.9031877,13 28.2855239,13 L22.1178374,13 C21.5005466,13 20.9996272,13.56443 21.0000002,14.2605042" id="Fill-14" fill="#935793" sketch:type="MSShapeGroup"></path>
        <path d="M8.40335803,14.2494344 C8.40187537,13.5580911 7.90333044,12.9983328 7.28950858,13.0000037 L1.10829278,13.0167129 C0.494841589,13.0188016 -0.00147934827,13.5802308 3.31323485e-06,14.2711563 C0.000744643985,14.6162014 0.124917545,14.9282457 0.325447513,15.15382 C0.527089477,15.3810651 0.806200504,15.5218402 1.11385277,15.5210047 L7.29506856,15.5038778 C7.90851976,15.5022069 8.40484069,14.9403599 8.40335803,14.2494344" id="Fill-15" fill="#935793" sketch:type="MSShapeGroup"></path>
        <path d="M15.5210082,22.1178373 C15.5210082,21.5001734 14.9569988,21 14.2605041,21 C13.5640093,21 13,21.5005464 13,22.1178373 L13.0004206,28.2855241 C13.0004206,28.594356 13.1413178,28.8737221 13.3692768,29.0758802 C13.5976564,29.2780382 13.9126773,29.4033613 14.2609247,29.4033613 C14.9569988,29.4033613 15.5214288,28.9028149 15.5210082,28.2855241 L15.5210082,22.1178373" id="Fill-16" fill="#D7226A" sketch:type="MSShapeGroup"></path>
        <path d="M13.0004206,7.29242734 C13.0004206,7.59935205 13.1413178,7.87699288 13.3692768,8.07827321 C13.5976564,8.27918287 13.9126773,8.40336134 14.2609247,8.40336134 C14.9569988,8.40336134 15.5214288,7.90590608 15.5210082,7.29242734 L15.5210082,1.11093401 C15.5210082,0.497084586 14.9569988,0 14.2605041,0 C13.5640093,0 13,0.497455268 13,1.11093401 L13.0004206,7.29242734" id="Fill-17" fill="#4AB9B2" sketch:type="MSShapeGroup"></path>
        <path d="M19.3272611,10.2357641 C19.7634228,10.6719258 20.470974,10.6722986 20.9071357,10.2357641 L26.2357641,4.90713567 C26.6722986,4.47097398 26.6719258,3.76342278 26.2357641,3.32726108 C25.7996024,2.89109939 25.092424,2.8907266 24.6558895,3.32726108 L19.3272611,8.65588954 C18.8907266,9.09242402 18.8910994,9.79997522 19.3272611,10.2357641" id="Fill-18" fill="#4AB9B2" sketch:type="MSShapeGroup"></path>
        <path d="M10.235914,20.3272611 C9.79976575,19.8910994 9.09223635,19.8907266 8.65571531,20.3272611 L3.327251,25.6558895 C2.89072996,26.092424 2.89110274,26.7996024 3.327251,27.2357641 C3.76339926,27.6719258 4.47092866,27.6722986 4.90707693,27.2357641 L10.235914,21.9071357 C10.6720623,21.4706012 10.6720623,20.7634228 10.235914,20.3272611" id="Fill-19" fill="#D7226A" sketch:type="MSShapeGroup"></path>
        <path d="M26.2357742,25.6559835 L20.9073099,20.327245 C20.4711616,19.8911048 19.7636322,19.890732 19.3271112,20.327245 C18.8909629,20.7637579 18.8909629,21.4709015 19.3271112,21.9074144 L24.6559483,27.2357803 C25.0920965,27.6719205 25.7996259,27.6722932 26.2357742,27.2357803 C26.6722952,26.7996401 26.6719225,26.0921237 26.2357742,25.6559835" id="Fill-20" fill="#D7226A" sketch:type="MSShapeGroup"></path>
        <path d="M10.2357803,10.235914 C10.6722932,9.79939298 10.6719205,9.09186358 10.2357803,8.65571531 L4.90704167,3.327251 C4.47090147,2.89110274 3.76338515,2.89072996 3.32724495,3.327251 C2.89073198,3.76339926 2.89110475,4.47092866 3.32724495,4.90707693 L8.65598354,10.235914 C9.09175097,10.6720623 9.79926729,10.6720623 10.2357803,10.235914" id="Fill-21" fill="#4AB9B2" sketch:type="MSShapeGroup"></path>
    </g>
</svg>